# xmcd
#
# Track frame offsets:
#	150
#	13815
#	25917
#	44570
#	62118
#	75372
#	91118
#	104394
#	122742
#	139630
#	155432
#	174347
#
# Disc length: 2591 seconds
#
# Revision: 1
# Processed by: cddbd v1.5.2PL0 Copyright (c) Steve Scherf et al.
# Submitted via: audiograbber 1.83.01
#
DISCID=900a1d0c
DTITLE=The Most Ugly Child - Copper And Lace
DYEAR=2016
DGENRE=Americana
TTITLE0=What Might Have Been
TTITLE1=Golden Gates
TTITLE2=Roses
TTITLE3=Paper, Linen, Copper, Lace
TTITLE4=Lungs
TTITLE5=Just Another Lesson In Pain
TTITLE6=Long Gone Woman Blues
TTITLE7=Today, You Said Goodbye
TTITLE8=The Bottle and The Fall
TTITLE9=Those Were The Days
TTITLE10=Queen Of The Honky Tonk
TTITLE11=My Pony
EXTD=
EXTT0=
EXTT1=
EXTT2=
EXTT3=
EXTT4=
EXTT5=
EXTT6=
EXTT7=
EXTT8=
EXTT9=
EXTT10=
EXTT11=
PLAYORDER=
